<svg xmlns="http://www.w3.org/2000/svg" width="466.075" height="456.197" viewBox="0 0 466.075 456.197">
  <g id="seta" transform="translate(0 -0.001)">
    <g id="Background_Simple" data-name="Background Simple" transform="translate(0 0.001)">
      <path id="Caminho_7" data-name="Caminho 7" d="M452.292,176.961C400.544,88.359,260.214,119.917,231.5,76.82c-14.67-22.068-31.091-47.65-54.911-60.962C153.916,3.184,127.6-1.348,104.653.34,22.695,6.369-12.048,79.665,3.694,160.19,24.7,267.6,119.949,377.329,233.051,378.093c59.157.4,115.639-20.742,159.956-50.644l.987-.669C438.259,296.645,491.79,244.621,452.292,176.961Z" transform="translate(0 -0.001)" fill="#92e3a9"/>
      <path id="Caminho_8" data-name="Caminho 8" d="M452.292,176.961C400.544,88.359,260.214,119.917,231.5,76.82c-14.67-22.068-31.091-47.65-54.911-60.962C153.916,3.184,127.6-1.348,104.653.34,22.695,6.369-12.048,79.665,3.694,160.19,24.7,267.6,119.949,377.329,233.051,378.093c59.157.4,115.639-20.742,159.956-50.644l.987-.669C438.259,296.645,491.79,244.621,452.292,176.961Z" transform="translate(0 -0.001)" fill="#fff" opacity="0.7"/>
    </g>
    <g id="Lines" transform="translate(21.633 23.353)">
      <path id="Caminho_9" data-name="Caminho 9" d="M49.412,172.79H43.659A23.279,23.279,0,0,0,20.38,196.069v127.74A23.279,23.279,0,0,0,43.659,347.1h78.933a23.279,23.279,0,0,0,23.279-23.279h0" transform="translate(-20.38 -12.727)" fill="none" stroke="#263238" stroke-linecap="round" stroke-linejoin="round" stroke-width="1.1" stroke-dasharray="4.41"/>
      <path id="Caminho_10" data-name="Caminho 10" d="M132.5,61.53V36.3A14.266,14.266,0,0,1,146.756,22H249.413a14.266,14.266,0,0,1,14.256,14.266h0" transform="translate(-13.485 -22)" fill="none" stroke="#263238" stroke-linecap="round" stroke-linejoin="round" stroke-width="1.1" stroke-dasharray="4.41"/>
    </g>
    <g id="Shadow" transform="translate(29.743 399.387)">
      <ellipse id="Elipse_3" data-name="Elipse 3" cx="203.297" cy="28.406" rx="203.297" ry="28.406" fill="#92e3a9"/>
      <ellipse id="Elipse_4" data-name="Elipse 4" cx="203.297" cy="28.406" rx="203.297" ry="28.406" fill="#fff" opacity="0.5"/>
    </g>
    <g id="Window" transform="translate(41.398 73.169)">
      <path id="Caminho_11" data-name="Caminho 11" d="M422.284,92.5V283.628a23.565,23.565,0,0,1-23.565,23.565H62.555A23.565,23.565,0,0,1,39,283.628V92.5q0-.849.064-1.656A23.565,23.565,0,0,1,62.555,68.93H398.719A23.555,23.555,0,0,1,422.2,90.839,14.184,14.184,0,0,1,422.284,92.5Z" transform="translate(-39 -68.93)" fill="#fff" stroke="#263238" stroke-linecap="round" stroke-linejoin="round" stroke-width="1.1"/>
      <path id="Caminho_12" data-name="Caminho 12" d="M49.8,97.89H411.355V274.448a22.079,22.079,0,0,1-22.079,22.079H71.879A22.079,22.079,0,0,1,49.8,274.448Z" transform="translate(-38.336 -67.149)" fill="#263238"/>
      <path id="Caminho_13" data-name="Caminho 13" d="M411.355,97.88V274.449a21.952,21.952,0,0,1-21.824,22.058H71.635A21.952,21.952,0,0,1,49.8,274.449V97.88Z" transform="translate(-38.336 -67.15)" fill="#fff" opacity="0.2"/>
      <path id="Caminho_14" data-name="Caminho 14" d="M422.2,90.839H39.06A23.565,23.565,0,0,1,62.551,68.93H398.715A23.555,23.555,0,0,1,422.2,90.839Z" transform="translate(-38.996 -68.93)" fill="#92e3a9" stroke="#263238" stroke-miterlimit="10" stroke-width="1.1"/>
      <path id="Caminho_15" data-name="Caminho 15" d="M83.9,79.492a4.172,4.172,0,1,1-4.172-4.172A4.172,4.172,0,0,1,83.9,79.492Z" transform="translate(-36.752 -68.537)" fill="#263238"/>
      <path id="Caminho_16" data-name="Caminho 16" d="M100.483,79.492a4.172,4.172,0,1,1-4.172-4.172A4.172,4.172,0,0,1,100.483,79.492Z" transform="translate(-35.732 -68.537)" fill="#263238"/>
      <circle id="Elipse_5" data-name="Elipse 5" cx="4.172" cy="4.172" r="4.172" transform="translate(74.092 6.783)" fill="#263238"/>
      <path id="Caminho_17" data-name="Caminho 17" d="M411.354,97.89V274.448a22.09,22.09,0,0,1-22.09,22.058H71.878a22.079,22.079,0,0,1-21.654-17.8h0a22.291,22.291,0,0,1-.414-4.246V97.89Z" transform="translate(-38.335 -67.149)" fill="none" stroke="#263238" stroke-miterlimit="10" stroke-width="1.1"/>
      <path id="Caminho_18" data-name="Caminho 18" d="M392.516,124.251a22.291,22.291,0,0,0-4.915-2.027l-1.974-8.863H377.2l-1.974,8.863a21.61,21.61,0,0,0-4.915,2.027l-7.611-4.9-5.955,5.955,4.787,7.611a21.6,21.6,0,0,0-2.027,4.925L350.64,139.8v8.428l8.863,1.985a21.378,21.378,0,0,0,2.027,4.947l-4.872,7.706,5.955,5.955,7.664-4.872a21.442,21.442,0,0,0,4.915,2.038l1.964,8.853h8.439l1.974-8.853a22.058,22.058,0,0,0,4.9-2.038l.393.244V124.028Zm-11.082,30.73a10.891,10.891,0,1,1,10.891-10.891A10.891,10.891,0,0,1,381.434,154.981Z" transform="translate(-19.836 -66.198)" fill="#263238"/>
      <path id="Caminho_19" data-name="Caminho 19" d="M254.511,133.738V115.968l-18.7-4.161a48.276,48.276,0,0,0-4.246-10.371l2.261-3.567h-88.21l2.176,3.471a45.644,45.644,0,0,0-4.246,10.36l-18.693,4.161v17.769l18.693,4.172a46.333,46.333,0,0,0,4.246,10.445l-10.265,16.145,12.568,12.568,16.135-10.275a47.2,47.2,0,0,0,10.381,4.246l4.14,18.672h17.78l4.182-18.672a48.13,48.13,0,0,0,10.339-4.246l16.145,10.275L241.773,164.4l-10.19-16.145a48.658,48.658,0,0,0,4.246-10.35ZM189.76,147.813a22.96,22.96,0,1,1,22.96-22.96A22.96,22.96,0,0,1,189.76,147.813Z" transform="translate(-33.721 -67.15)" fill="#263238"/>
      <path id="Caminho_20" data-name="Caminho 20" d="M141.214,250.209l.754-14.1-14.617-4.119a40.094,40.094,0,0,0-2.993-8.386l8.832-12.4L123.721,200.7l-13.2,7.484a39.572,39.572,0,0,0-8.057-3.853L99.9,189.343,85.8,188.6l-4.076,14.659a37.3,37.3,0,0,0-8.375,2.972L60.965,197.4l-10.519,9.469,7.494,13.237a36.685,36.685,0,0,0-3.864,8.046l-4.246.7v19.107l3.11.87a36.228,36.228,0,0,0,2.993,8.407l-6.1,8.492.414,7.324h0l6.284,6.985,13.258-7.484a36.559,36.559,0,0,0,8.078,3.9l2.388,14.479h0l.127.594,14.1.754.372-1.348h0l3.7-13.3a38.448,38.448,0,0,0,8.428-2.972l12.366,8.81,10.509-9.447-7.43-13.258a36.378,36.378,0,0,0,3.821-8.025Zm-37.439-22.026a18.258,18.258,0,1,0-1.359,25.773,18.258,18.258,0,0,0,1.359-25.773Z" transform="translate(-38.334 -61.571)" fill="#263238"/>
      <path id="Caminho_21" data-name="Caminho 21" d="M246,229.454a28.917,28.917,0,0,0,.849-6.677l10.137-5.307-2.8-10.286-11.432.531a28.542,28.542,0,0,0-4.119-5.307l3.4-10.955-9.246-5.307-7.728,8.492a29.851,29.851,0,0,0-6.656-.849L213.1,183.64l-10.265,2.8.541,11.454A28.563,28.563,0,0,0,198.067,202l-10.955-3.386-5.307,9.224,8.492,7.706a27.705,27.705,0,0,0-.839,6.666L179.3,227.522l2.8,10.286,11.454-.541a27.005,27.005,0,0,0,4.1,5.307l-3.407,10.891,9.246,5.307,7.685-8.365a27.7,27.7,0,0,0,6.666.839l5.307,10.148,10.265-2.792-.446-9.787-.074-1.677a28.374,28.374,0,0,0,5.371-4.108l10.944,3.4,4.522-7.9.764-1.337ZM221.728,235.7a13.8,13.8,0,1,1,9.649-16.888,13.8,13.8,0,0,1-9.649,16.888Z" transform="translate(-30.373 -61.876)" fill="#263238"/>
      <path id="Caminho_22" data-name="Caminho 22" d="M358.814,247.8l2.346-14.118-14.288-5.743a37.969,37.969,0,0,0-2.049-8.81l10.286-11.5-8.333-11.676-14.171,6.019a37.552,37.552,0,0,0-7.664-4.755l-.828-15.381L309.986,179.5,304.2,193.83a39.466,39.466,0,0,0-8.768,2.059l-11.485-10.275-11.623,8.322,6.029,14.171a38.467,38.467,0,0,0-4.3,6.677c-.159.329-.329.648-.478.977l-15.381.86-2.335,14.1,2.314.934,11.974,4.83a36.312,36.312,0,0,0,2.049,8.768L261.91,256.734l8.322,11.676,14.182-6.051a37.216,37.216,0,0,0,7.685,4.713l.8,15.307L307,284.715l5.775-14.118a36.791,36.791,0,0,0,8.789-2.07l11.464,10.3,11.676-8.333-6.04-14.182a36.961,36.961,0,0,0,4.84-7.7Zm-39.583-.637a18.481,18.481,0,1,1,4.246-25.784A18.481,18.481,0,0,1,319.231,247.16Z" transform="translate(-25.665 -62.131)" fill="#263238"/>
    </g>
    <g id="Graphics" transform="translate(58.308 44.859)">
      <rect id="Retângulo_46" data-name="Retângulo 46" width="138.843" height="181.526" rx="13.11" transform="translate(0 109.461)" fill="#92e3a9" stroke="#263238" stroke-miterlimit="10" stroke-width="1.1"/>
      <rect id="Retângulo_47" data-name="Retângulo 47" width="138.843" height="181.526" rx="13.11" transform="translate(0 109.461)" opacity="0.2"/>
      <path id="Caminho_23" data-name="Caminho 23" d="M205.943,172.216V325.91a13.916,13.916,0,0,1-13.927,13.916h-111A13.906,13.906,0,0,1,67.1,325.91V172.216A13.916,13.916,0,0,1,81.016,158.3h111A13.916,13.916,0,0,1,205.943,172.216Z" transform="translate(-54.182 -35.124)" fill="#fff" stroke="#263238" stroke-linecap="round" stroke-linejoin="round" stroke-width="1.1"/>
      <path id="Caminho_24" data-name="Caminho 24" d="M205.943,172.216v8.227H67.1v-8.227A13.916,13.916,0,0,1,81.016,158.3h111A13.916,13.916,0,0,1,205.943,172.216Z" transform="translate(-54.182 -35.124)" fill="#92e3a9" stroke="#263238" stroke-miterlimit="10" stroke-width="1.1"/>
      <rect id="Retângulo_48" data-name="Retângulo 48" width="34.159" height="5.732" transform="translate(25.975 154.851)" fill="#92e3a9"/>
      <rect id="Retângulo_49" data-name="Retângulo 49" width="34.159" height="5.732" transform="translate(25.975 206.216)" fill="#92e3a9"/>
      <rect id="Retângulo_50" data-name="Retângulo 50" width="34.159" height="5.732" transform="translate(25.975 252.795)" fill="#92e3a9"/>
      <rect id="Retângulo_51" data-name="Retângulo 51" width="97.01" height="4.204" transform="translate(25.975 169.032)" fill="#263238"/>
      <rect id="Retângulo_52" data-name="Retângulo 52" width="79.516" height="4.097" transform="translate(25.975 177.078)" fill="#263238"/>
      <rect id="Retângulo_53" data-name="Retângulo 53" width="89.93" height="4.097" transform="translate(25.975 184.986)" fill="#263238"/>
      <rect id="Retângulo_54" data-name="Retângulo 54" width="89.93" height="4.097" transform="translate(25.975 192.884)" fill="#263238"/>
      <rect id="Retângulo_55" data-name="Retângulo 55" width="97.01" height="4.204" transform="translate(25.975 215.61)" fill="#263238"/>
      <rect id="Retângulo_56" data-name="Retângulo 56" width="79.516" height="4.097" transform="translate(25.975 223.657)" fill="#263238"/>
      <rect id="Retângulo_57" data-name="Retângulo 57" width="89.93" height="4.097" transform="translate(25.975 231.565)" fill="#263238"/>
      <rect id="Retângulo_58" data-name="Retângulo 58" width="97.01" height="4.204" transform="translate(25.975 266.764)" fill="#263238"/>
      <rect id="Retângulo_59" data-name="Retângulo 59" width="79.516" height="4.097" transform="translate(25.975 274.81)" fill="#263238"/>
      <rect id="Retângulo_60" data-name="Retângulo 60" width="89.93" height="4.097" transform="translate(25.975 282.718)" fill="#263238"/>
      <path id="Caminho_25" data-name="Caminho 25" d="M355.511,58.862V120.98a16.58,16.58,0,0,1-16.591,16.591H195.841A16.591,16.591,0,0,1,179.25,120.98V58.862a16.612,16.612,0,0,1,16.591-16.6H338.92a16.591,16.591,0,0,1,16.591,16.6Z" transform="translate(-47.285 -42.26)" fill="#fff" stroke="#222221" stroke-miterlimit="10" stroke-width="1.1"/>
      <path id="Caminho_26" data-name="Caminho 26" d="M355.508,58.862v1.422H179.3V58.862a16.612,16.612,0,0,1,16.591-16.6H338.917a16.591,16.591,0,0,1,16.591,16.6Z" transform="translate(-47.282 -42.26)" fill="#92e3a9" stroke="#263238" stroke-miterlimit="10" stroke-width="1.1"/>
      <path id="Caminho_27" data-name="Caminho 27" d="M203.9,53.8a2.548,2.548,0,1,1,0-3.6A2.548,2.548,0,0,1,203.9,53.8Z" transform="translate(-46.037 -41.818)" fill="#263238"/>
      <path id="Caminho_28" data-name="Caminho 28" d="M215.022,53.8a2.548,2.548,0,1,1,0-3.6,2.548,2.548,0,0,1,0,3.6Z" transform="translate(-45.353 -41.818)" fill="#263238"/>
      <path id="Caminho_29" data-name="Caminho 29" d="M226.142,53.8a2.548,2.548,0,1,1,0-3.6,2.548,2.548,0,0,1,0,3.6Z" transform="translate(-44.669 -41.818)" fill="#263238"/>
      <rect id="Retângulo_61" data-name="Retângulo 61" width="57.618" height="49.805" transform="translate(143.206 29.446)" fill="none" stroke="#263238" stroke-linecap="round" stroke-linejoin="round" stroke-width="1.1" stroke-dasharray="4.41"/>
      <rect id="Retângulo_62" data-name="Retângulo 62" width="66.311" height="3.503" transform="translate(209.709 29.446)" fill="#263238"/>
      <rect id="Retângulo_63" data-name="Retângulo 63" width="50.867" height="3.492" transform="translate(209.709 36.696)" fill="#263238"/>
      <rect id="Retângulo_64" data-name="Retângulo 64" width="75.738" height="3.535" transform="translate(209.709 43.914)" fill="#263238"/>
      <rect id="Retângulo_65" data-name="Retângulo 65" width="64.496" height="3.535" transform="translate(209.709 50.952)" fill="#263238"/>
    </g>
    <g id="Character" transform="translate(210.056 175.723)">
      <path id="Caminho_30" data-name="Caminho 30" d="M270.61,398.763s-30.783,8.832-35.029,10.36c-3.906,1.38-14.511,5.085-22.461,3.938a17.607,17.607,0,0,1-2.272-.488c-8.046-2.4-11.676-4.639-12.738-9.713s2.951-8.789,6.815-11.178,24.828-4.883,24.828-4.883l5.063,1.486h0Z" transform="translate(-197.884 -151.937)" fill="#92e3a9"/>
      <path id="Caminho_31" data-name="Caminho 31" d="M213.07,413.061a17.606,17.606,0,0,1-2.272-.488c-8.046-2.4-11.676-4.639-12.738-9.713s2.951-8.789,6.815-11.178S229.7,386.8,229.7,386.8l5.063,1.486c-4.586,2.123-21.654,3.28-25.38,5.424s-5.53,6.178-3.322,11.676C207.242,408.242,210.384,411.066,213.07,413.061Z" transform="translate(-197.887 -151.937)" fill="#fff"/>
      <path id="Caminho_32" data-name="Caminho 32" d="M265.935,399.951s-23.119,5.987-32.291,9.819-26.654,5.509-32.906-2.4-.616-14.7,5.573-16.188,18.831-3.906,25.709-2.94" transform="translate(-197.879 -151.862)" fill="none" stroke="#263238" stroke-linecap="round" stroke-linejoin="round" stroke-width="1.1"/>
      <path id="Caminho_33" data-name="Caminho 33" d="M213.131,412.561s-11.761-6.454-7.855-15.5c2.887-6.666,18.576-5.223,26.346-8.863" transform="translate(-197.481 -151.851)" fill="none" stroke="#263238" stroke-linecap="round" stroke-linejoin="round" stroke-width="1.1"/>
      <path id="Caminho_34" data-name="Caminho 34" d="M358.447,414.526c-.318,3.184-1.433,6.167-4.617,8.046-2.123,1.253-5.138,2-9.458,1.953-10.8-.138-31.091-7.855-31.091-7.855l-19-10.509,9.883-15.636,2.707-4.246,6.985,1.571s5.785,3.269,11.6,5.881,19.945,3.184,24.924,7.2S358.978,409.336,358.447,414.526Z" transform="translate(-191.959 -151.969)" fill="#92e3a9"/>
      <path id="Caminho_35" data-name="Caminho 35" d="M357.875,414.526c-.318,3.184-1.433,6.167-4.617,8.046a14.224,14.224,0,0,0-.541-9.49c-2.123-4.766-9.023-8.97-18.109-9.67s-16.039-4.957-19.691-6.847c-2.845-1.475-8.832-4.7-11.326-6.04l2.707-4.246,6.985,1.571s5.785,3.269,11.6,5.881,19.945,3.184,24.924,7.2S358.405,409.336,357.875,414.526Z" transform="translate(-191.387 -151.969)" fill="#fff"/>
      <path id="Caminho_36" data-name="Caminho 36" d="M298.354,408.749a120.108,120.108,0,0,0,44.487,15.19c3.45.414,7.43.478,9.8-2.123a7.25,7.25,0,0,0,1.592-5.435c-.425-4.872-4.522-8.747-9.023-10.679s-9.469-2.388-14.245-3.46a56.661,56.661,0,0,1-13.693-5.01c-3.439-1.794-6.762-3.97-10.551-4.777s-8.3.17-10.328,3.482" transform="translate(-191.83 -151.606)" fill="none" stroke="#263238" stroke-linecap="round" stroke-linejoin="round" stroke-width="1.1"/>
      <path id="Caminho_37" data-name="Caminho 37" d="M350.8,423.418a12.653,12.653,0,0,0,6.953-8.98c.69-4.6-1.932-9.224-5.615-12.048s-8.3-4.161-12.855-5.106-9.214-1.582-13.545-3.28c-6.656-2.6-13.226-7.738-20.168-5.9" transform="translate(-191.265 -151.881)" fill="none" stroke="#263238" stroke-linecap="round" stroke-linejoin="round" stroke-width="1.1"/>
      <path id="Caminho_38" data-name="Caminho 38" d="M325.117,254.375l-32.163-12.239-.393-.149s.117-.849.212-2.123c.2-2.569.3-6.751-.9-8.163-1.794-2.123-6.878-.34-11.825-2.611s-14.128,1.794-14.128,1.794-6.613-1.221-9.553,3.556c-1.486,3.853-.966,9.553-.966,9.553l-.605.223c-3.832,1.433-24.68,9.277-29.1,12.43-4.862,3.45-10.254,38.872-11.984,49.274s-4.819,19.776-3.248,23.353,23.947,20.89,36.866,25.338S305.9,357.8,305.9,357.8s.754-.2,2.123-.626c7.728-2.484,35.146-12.738,49.688-36.813C357.673,320.325,343.587,274.118,325.117,254.375Zm-86.873,59.582c-2.367,1.677-1.061,8.174-1.061,8.174l-4.034-3.545,10.063-24.8,4.31,19.107S240.6,312.29,238.244,313.956Zm80.833,15.784c-1.061.573,3.184-11.369,1.157-14.075s-8.184-2.452-8.184-2.452l.52-3.259,3.641-18.682,1.21-1.444s12.5,21.442,14.744,29C332.165,318.829,318.536,329.741,319.077,329.741Z" transform="translate(-197.14 -161.678)" fill="#92e3a9"/>
      <path id="Caminho_39" data-name="Caminho 39" d="M262.3,179.86l-16.591,17.621s-2.293,2.027-1.38,7.133,3.025,9.5,4.628,9.84a22.006,22.006,0,0,0,3.843.35s3.556,7.706,6.072,10.732c0,0,.881,11.9.414,15.2,0,0,5.966,5.212,11.581,5.87s14.288-7.94,14.288-7.94l2.123-10.53s5.085-7.728,5.435-9.787,2.675-1.529,3.821-2.548,3.79-5.552,4.246-9.84.467-9.214-4.511-7.77c-4.32-1.157-1.613-10.286-1.613-10.286l-7.59-6.7Z" transform="translate(-195.044 -164.663)" fill="#fff"/>
      <path id="Caminho_40" data-name="Caminho 40" d="M290.359,242.132a15.921,15.921,0,0,1-.849,1.921c-2.739,5.169-14.67,15-14.67,15l-3.609-11.082-1.974,11.082c-3.991-1.73-16.124-12.25-16.124-12.25s-.414-.987-.913-2.526l.605-.223s-.52-5.732.966-9.553c2.919-4.777,9.553-3.556,9.553-3.556s9.171-4.066,14.128-1.794,10.031.51,11.825,2.611.69,10.254.69,10.254Z" transform="translate(-194.546 -161.674)" fill="#fff" opacity="0.5"/>
      <path id="Caminho_41" data-name="Caminho 41" d="M320.638,253.711l-32.163-12.239-.393-.149s.117-.849.212-2.123l-.669,4.161-4.755,6.464a132.5,132.5,0,0,1,14.861,6.539,13.035,13.035,0,0,1,6.815,13l-5.923,50.686-2.431,28.777,7.335,7.611c7.728-2.484,35.146-12.738,49.688-36.813C353.194,319.661,339.108,273.454,320.638,253.711Zm-6.04,75.366c-1.061.573,3.184-11.369,1.157-14.075s-8.184-2.452-8.184-2.452l.52-3.259,3.641-18.682,1.21-1.444s12.5,21.442,14.744,29C327.686,318.164,314.057,329.077,314.6,329.077Z" transform="translate(-192.661 -161.014)" opacity="0.2"/>
      <path id="Caminho_42" data-name="Caminho 42" d="M249.3,313.786l-5-16.708s-8.97-30.582-15.116-38.118l1.635,21.506s-5.307,25.688-10.158,33.32-5.934,9.553,0,9.553,20.381,11.507,20.381,11.507l-1.115-9.553Zm-12.568,6.464-4.034-3.545,10.105-24.8,4.31,19.107s-6.921-.52-9.277,1.146-1.1,8.089-1.1,8.089Z" transform="translate(-196.736 -159.799)" opacity="0.2"/>
      <path id="Caminho_43" data-name="Caminho 43" d="M258,222.89s.923,9.012,0,13.131" transform="translate(-194.19 -162.017)" fill="none" stroke="#263238" stroke-linecap="round" stroke-linejoin="round" stroke-width="1.1"/>
      <path id="Caminho_44" data-name="Caminho 44" d="M283.65,234.619a38.775,38.775,0,0,1,1-8.609" transform="translate(-192.613 -161.825)" fill="none" stroke="#263238" stroke-linecap="round" stroke-linejoin="round" stroke-width="1.1"/>
      <path id="Caminho_45" data-name="Caminho 45" d="M288.037,186.19s5.456,6.847,5.169,12.016-.7,11.326-.552,17.334-9.649,18.6-14.68,19.712-9.362,1.4-12.579-1.815-6.433-7.685-10.615-13.417-3.184-18.311-3.184-18.311" transform="translate(-194.591 -164.273)" fill="none" stroke="#263238" stroke-linecap="round" stroke-linejoin="round" stroke-width="1.1"/>
      <path id="Caminho_46" data-name="Caminho 46" d="M273.59,205.32a28.47,28.47,0,0,0-.425,5.7,6.443,6.443,0,0,0,1.4,4.458c.594.616,1.475,1.115,1.592,1.964a2.123,2.123,0,0,1-1.125,1.858,14.07,14.07,0,0,0-1.964,1.168" transform="translate(-193.264 -163.097)" fill="none" stroke="#263238" stroke-linecap="round" stroke-linejoin="round" stroke-width="1.1"/>
      <path id="Caminho_47" data-name="Caminho 47" d="M265.4,220.21s.637,4.066,6.082,4.915" transform="translate(-193.735 -162.181)" fill="none" stroke="#263238" stroke-linecap="round" stroke-linejoin="round" stroke-width="1.1"/>
      <path id="Caminho_48" data-name="Caminho 48" d="M266.072,208.363c0,1.178-.51,2.123-1.136,2.123s-1.136-.945-1.136-2.123.51-2.123,1.136-2.123S266.072,207.185,266.072,208.363Z" transform="translate(-193.834 -163.041)" fill="#263238"/>
      <path id="Caminho_49" data-name="Caminho 49" d="M281.382,208.843c0,1.178-.51,2.123-1.136,2.123s-1.136-.945-1.136-2.123.51-2.123,1.136-2.123S281.382,207.675,281.382,208.843Z" transform="translate(-192.892 -163.011)" fill="#263238"/>
      <path id="Caminho_50" data-name="Caminho 50" d="M278.16,204s5.307-5.307,9.755.616" transform="translate(-192.951 -163.313)" fill="none" stroke="#263238" stroke-linecap="round" stroke-linejoin="round" stroke-width="2.21"/>
      <path id="Caminho_51" data-name="Caminho 51" d="M268.131,204.1s-3.354-3.758-8.641,0" transform="translate(-194.099 -163.275)" fill="none" stroke="#263238" stroke-linecap="round" stroke-linejoin="round" stroke-width="2.21"/>
      <path id="Caminho_52" data-name="Caminho 52" d="M258.435,227.847s3.184,8.917,10.466,11.443,16.825-10.615,16.825-10.615l-.5-1.709s-6.295,8.173-13.29,6.772S258,222.89,258,222.89Z" transform="translate(-194.19 -162.017)" fill="#263238"/>
      <path id="Caminho_53" data-name="Caminho 53" d="M252.791,213.476s-4.31,1.529-5.456-1.836-5.074-12.186-1.635-15.137,6.2,3.9,6.2,3.9" transform="translate(-195.032 -163.685)" fill="none" stroke="#263238" stroke-linecap="round" stroke-linejoin="round" stroke-width="1.1"/>
      <path id="Caminho_54" data-name="Caminho 54" d="M290.26,215.248s4,.807,5.148-2.558,5.074-12.186,1.635-15.137-6.2,3.9-6.2,3.9" transform="translate(-192.207 -163.62)" fill="none" stroke="#263238" stroke-linecap="round" stroke-linejoin="round" stroke-width="1.1"/>
      <path id="Caminho_55" data-name="Caminho 55" d="M252.169,210.866a6,6,0,0,0,3.779-2.229,9.681,9.681,0,0,0,1.062-3.4,41.926,41.926,0,0,0,.594-6.825,8.98,8.98,0,0,1,.244-2.664,6.719,6.719,0,0,1,1.433-2.367c1.507-1.762,3.323-3.248,4.745-5.074a8.492,8.492,0,0,0,2.123-6.369A29.138,29.138,0,0,0,290,188.107c7.579-1.486,14.861-8.142,13.969-16.506a6.741,6.741,0,0,0-5.307-5.817c-3.747-.934-7.112,1.061-10.509,2.346-6.188,2.335-12.25-1.677-18.5-2.357-5.307-.573-11.921.1-14.7,5.414,0,0-9.617,1.125-13.8,9.023s3.758,18.725,3.758,18.725,3.184-3.9,7.356,4Z" transform="translate(-195.301 -165.543)" fill="#263238"/>
      <path id="Caminho_56" data-name="Caminho 56" d="M286.517,184.484s-2.484,12.95,4,19.224c0,0,1.412-3.9,2.855-4.851a15,15,0,0,0-1.136-14.373C287.494,176.947,286.517,184.484,286.517,184.484Z" transform="translate(-192.466 -164.584)" fill="#263238"/>
      <path id="Caminho_57" data-name="Caminho 57" d="M300.587,170.41a12.218,12.218,0,0,1-7.43,7.717c-9,3.673-17.748-.393-26.76-1.189-7.367-.658-15.487,5.987-16,13.545" transform="translate(-194.658 -165.244)" fill="none" stroke="#fff" stroke-linecap="round" stroke-linejoin="round" stroke-width="1.1" opacity="0.2"/>
      <path id="Caminho_58" data-name="Caminho 58" d="M245.16,188.244a15.731,15.731,0,0,1,9.553-13.884" transform="translate(-194.98 -165.001)" fill="none" stroke="#fff" stroke-linecap="round" stroke-linejoin="round" stroke-width="1.1" opacity="0.2"/>
      <path id="Caminho_59" data-name="Caminho 59" d="M256.07,234.181a40.984,40.984,0,0,0,14.012,9.553s10.774-3.131,16.262-10.615" transform="translate(-194.309 -161.388)" fill="none" stroke="#263238" stroke-linecap="round" stroke-linejoin="round" stroke-width="1.1"/>
      <circle id="Elipse_6" data-name="Elipse 6" cx="9.532" cy="9.532" r="9.532" transform="matrix(0.909, -0.417, 0.417, 0.909, 56.141, 40.615)" fill="none" stroke="#263238" stroke-linecap="round" stroke-linejoin="round" stroke-width="1.1"/>
      <circle id="Elipse_7" data-name="Elipse 7" cx="9.532" cy="9.532" r="9.532" transform="translate(79.45 37.044) rotate(-7)" fill="none" stroke="#263238" stroke-linecap="round" stroke-linejoin="round" stroke-width="1.1"/>
      <path id="Caminho_60" data-name="Caminho 60" d="M258.322,230.77a7.43,7.43,0,0,0-4.586,3.556c-1.688,2.972-.669,12.324-.669,12.324s8.715,8.619,16.135,12.26l2.187-12.3,3.4,12.3s11.485-8.12,14.67-14.988c0,0,1.061-8.014,0-10.615a3.683,3.683,0,0,0-3.429-2.505" transform="translate(-194.512 -161.532)" fill="none" stroke="#263238" stroke-linecap="round" stroke-linejoin="round" stroke-width="1.1"/>
      <path id="Caminho_61" data-name="Caminho 61" d="M245.619,310.171s-3.4-22.822-7.929-32.131" transform="translate(-195.439 -158.625)" fill="none" stroke="#263238" stroke-linecap="round" stroke-linejoin="round" stroke-width="1.1"/>
      <path id="Caminho_62" data-name="Caminho 62" d="M228.46,259a92.826,92.826,0,0,1,7.048,11.793" transform="translate(-196.007 -159.796)" fill="none" stroke="#263238" stroke-linecap="round" stroke-linejoin="round" stroke-width="1.1"/>
      <path id="Caminho_63" data-name="Caminho 63" d="M312.77,275.645a64.748,64.748,0,0,1,3.736-11.135" transform="translate(-190.822 -159.457)" fill="none" stroke="#263238" stroke-linecap="round" stroke-linejoin="round" stroke-width="1.1"/>
      <path id="Caminho_64" data-name="Caminho 64" d="M306.13,309.963s2.463-15.646,5.382-28.533" transform="translate(-191.231 -158.417)" fill="none" stroke="#263238" stroke-linecap="round" stroke-linejoin="round" stroke-width="1.1"/>
      <path id="Caminho_65" data-name="Caminho 65" d="M310.06,288.006a17.961,17.961,0,0,1,9.49-6.5" transform="translate(-190.989 -158.412)" fill="none" stroke="#263238" stroke-linecap="round" stroke-linejoin="round" stroke-width="1.1"/>
      <path id="Caminho_66" data-name="Caminho 66" d="M287.78,241.2s19.786,7.908,32.556,12.388c0,0,15.71,14.776,32.556,65.951,0,0-15.445,25.964-44.8,34.286" transform="translate(-192.359 -160.891)" fill="none" stroke="#263238" stroke-linecap="round" stroke-linejoin="round" stroke-width="1.1"/>
      <path id="Caminho_67" data-name="Caminho 67" d="M311.72,325.609,325.9,313.774s7.5-5.711,15.307-1.8" transform="translate(-190.887 -156.623)" fill="none" stroke="#263238" stroke-linecap="round" stroke-linejoin="round" stroke-width="1.1"/>
      <path id="Caminho_68" data-name="Caminho 68" d="M311.2,286.28s11.74,17.281,14.734,28.989" transform="translate(-190.919 -158.119)" fill="none" stroke="#263238" stroke-linecap="round" stroke-linejoin="round" stroke-width="1.1"/>
      <path id="Caminho_69" data-name="Caminho 69" d="M236.692,317.555l-4.15-3.959s-6.167-1.061-13.141,3.6" transform="translate(-196.564 -156.445)" fill="none" stroke="#263238" stroke-linecap="round" stroke-linejoin="round" stroke-width="1.1"/>
      <path id="Caminho_70" data-name="Caminho 70" d="M231.78,315.078s5.159-16.984,10.243-25.678" transform="translate(-195.803 -157.927)" fill="none" stroke="#263238" stroke-linecap="round" stroke-linejoin="round" stroke-width="1.1"/>
      <path id="Caminho_71" data-name="Caminho 71" d="M255.383,243.16s-28.459,10.679-31.25,13.8-13.4,62.83-13.672,69.666c-.244,6.114,21.92,19.839,32.906,25.624" transform="translate(-197.114 -160.77)" fill="none" stroke="#263238" stroke-linecap="round" stroke-linejoin="round" stroke-width="1.1"/>
      <rect id="Retângulo_66" data-name="Retângulo 66" width="46.292" height="32.896" rx="6.53" transform="translate(121.948 39.898)" fill="#fff" stroke="#263238" stroke-linecap="round" stroke-linejoin="round" stroke-width="1.1"/>
      <path id="Caminho_72" data-name="Caminho 72" d="M327.356,212.45l-8.906,5.594,8.258,7.324" transform="translate(-190.473 -162.659)" fill="none" stroke="#263238" stroke-linecap="round" stroke-linejoin="round" stroke-width="1.1"/>
      <path id="Caminho_73" data-name="Caminho 73" d="M342.191,225.865l8-6.815L340.96,213" transform="translate(-189.089 -162.625)" fill="none" stroke="#263238" stroke-linecap="round" stroke-linejoin="round" stroke-width="1.1"/>
      <line id="Linha_4" data-name="Linha 4" y1="20.614" x2="6.581" transform="translate(141.203 46.83)" fill="none" stroke="#263238" stroke-linecap="round" stroke-linejoin="round" stroke-width="1.1"/>
      <path id="Caminho_74" data-name="Caminho 74" d="M273.046,262.268a1.868,1.868,0,1,1-1.868-1.868A1.868,1.868,0,0,1,273.046,262.268Z" transform="translate(-193.495 -159.71)" fill="#263238"/>
      <path id="Caminho_75" data-name="Caminho 75" d="M307.7,356.556H242.948a1.518,1.518,0,0,1-1.518-1.518h0a1.518,1.518,0,0,1,1.518-1.518H307.7a1.518,1.518,0,0,1,1.518,1.518h0A1.518,1.518,0,0,1,307.7,356.556Z" transform="translate(-195.209 -153.984)" fill="#263238"/>
      <path id="Caminho_76" data-name="Caminho 76" d="M310.378,354.3l8.683-40.761a4.331,4.331,0,0,0-4.246-5.233H239.131a4.331,4.331,0,0,0-4.246,5.169l7.781,39.413a4.352,4.352,0,0,0,4.161,3.492l59.21,1.359a4.342,4.342,0,0,0,4.342-3.439Z" transform="translate(-195.617 -156.764)" fill="#fff" stroke="#263238" stroke-linecap="round" stroke-linejoin="round" stroke-width="1.1"/>
      <path id="Caminho_77" data-name="Caminho 77" d="M280.7,330.791a6.04,6.04,0,1,1-1.765-4.278A6.051,6.051,0,0,1,280.7,330.791Z" transform="translate(-193.539 -155.754)" fill="#263238"/>
      <line id="Linha_5" data-name="Linha 5" x2="8.991" transform="translate(99.009 155.41)" fill="none" stroke="#263238" stroke-linecap="round" stroke-linejoin="round" stroke-width="1.1"/>
      <line id="Linha_6" data-name="Linha 6" x2="34.138" transform="translate(56.071 155.41)" fill="none" stroke="#263238" stroke-linecap="round" stroke-linejoin="round" stroke-width="1.1"/>
      <path id="Caminho_78" data-name="Caminho 78" d="M312.507,395.55l-6.9,18.109s-17.589-4.437-40.124-9.055c-23.576-4.83-48.192-11.082-60.962-33.49-1.56-2.728-2.59-5.955-1.858-9.012,1.836-7.738,11.91-9.84,18.544-10.615a120.936,120.936,0,0,1,12.557-.7c2.123,0,9.182-1.157,10.88.106a50.354,50.354,0,0,0,8.195,4.851c3.768,1.592,58.775-1.444,58.775-1.444a19.626,19.626,0,0,0,1.73-6.6c8.641-4.395,28.66-8.11,37.152-6.475,13.311,2.59,21.071,10.35,19.585,18.481S339.225,389.637,312.507,395.55Z" transform="translate(-197.608 -154.764)" fill="#263238"/>
      <path id="Caminho_79" data-name="Caminho 79" d="M310.406,394.217s-16.729-4.437-30.4-13.672-24.351-19.956-43.4-17.738" transform="translate(-195.506 -153.431)" fill="none" stroke="#fff" stroke-linecap="round" stroke-linejoin="round" stroke-width="1.1"/>
      <path id="Caminho_80" data-name="Caminho 80" d="M274.53,379.121c8.63-2.495,14.978-8.078,21.9-13.439a148.047,148.047,0,0,1,23.459-15.413" transform="translate(-193.174 -154.184)" fill="none" stroke="#fff" stroke-linecap="round" stroke-linejoin="round" stroke-width="1.1"/>
      <line id="Linha_7" data-name="Linha 7" x2="2.526" transform="translate(78.32 46.83)" fill="none" stroke="#263238" stroke-linecap="round" stroke-linejoin="round" stroke-width="1.1"/>
    </g>
  </g>
</svg>
